HIERARCHY
ROOT Hips
{
	OFFSET 0.000000 0.000000 0.000000
	CHANNELS 6 Xposition Yposition Zposition Xrotation Yrotation Zrotation
	JOINT LeftUpLeg_virtual
	{
		OFFSET 0.000000 0.000000 0.000000
		CHANNELS 3 Xrotation Yrotation Zrotation
		JOINT LeftUpLeg
		{
			OFFSET 10.205400 -3.823500 0.155100
			CHANNELS 3 Xrotation Yrotation Zrotation
			JOINT LeftLeg
			{
				OFFSET 0.708757 -12.982077 0.567790
				CHANNELS 3 Xrotation Yrotation Zrotation
				JOINT LeftFoot
				{
					OFFSET -0.708756 -10.717838 -2.184338
					CHANNELS 3 Xrotation Yrotation Zrotation
					JOINT LeftToeBase
					{
						OFFSET 0.108149 -7.191104 7.560241
						CHANNELS 3 Xrotation Yrotation Zrotation
						JOINT LeftToe_End
						{
							OFFSET 0.070230 0.081724 4.490308
							CHANNELS 3 Xrotation Yrotation Zrotation
							End Site
							{
								OFFSET 0 0 0
							}
						}
					}
				}
			}
		}
	}
	JOINT RightUpLeg_virtual
	{
		OFFSET 0.000000 0.000000 0.000000
		CHANNELS 3 Xrotation Yrotation Zrotation
		JOINT RightUpLeg
		{
			OFFSET -10.205400 -3.823500 0.005500
			CHANNELS 3 Xrotation Yrotation Zrotation
			JOINT RightLeg
			{
				OFFSET -0.708756 -12.982134 0.610632
				CHANNELS 3 Xrotation Yrotation Zrotation
				JOINT RightFoot
				{
					OFFSET 0.708754 -10.717769 -1.945823
					CHANNELS 3 Xrotation Yrotation Zrotation
					JOINT RightToeBase
					{
						OFFSET -0.108140 -7.191069 7.372968
						CHANNELS 3 Xrotation Yrotation Zrotation
						JOINT RightToe_End
						{
							OFFSET -0.070227 0.081735 4.479403
							CHANNELS 3 Xrotation Yrotation Zrotation
							End Site
							{
								OFFSET 0 0 0
							}
						}
					}
				}
			}
		}
	}
	JOINT Spine_virtual
	{
		OFFSET 0.000000 0.000000 0.000000
		CHANNELS 3 Xrotation Yrotation Zrotation
		JOINT Spine
		{
			OFFSET 0.000000 6.876099 0.125700
			CHANNELS 3 Xrotation Yrotation Zrotation
			JOINT Spine1
			{
				OFFSET 0.000000 5.730043 0.104720
				CHANNELS 3 Xrotation Yrotation Zrotation
				JOINT Spine1_split
				{
					OFFSET 0.000000 5.730043 0.104720
					CHANNELS 3 Xrotation Yrotation Zrotation
					JOINT Spine2
					{
						OFFSET 0.000000 5.730043 0.104720
						CHANNELS 3 Xrotation Yrotation Zrotation
						JOINT Neck_virtual
						{
							OFFSET 0.000000 0.000000 0.000000
							CHANNELS 3 Xrotation Yrotation Zrotation
							JOINT Neck
							{
								OFFSET 0.000000 10.314075 0.188496
								CHANNELS 3 Xrotation Yrotation Zrotation
								JOINT Head
								{
									OFFSET 0.000000 7.643700 -2.377400
									CHANNELS 3 Xrotation Yrotation Zrotation
									JOINT HeadTop_End
									{
										OFFSET 0.000000 43.788605 -13.619600
										CHANNELS 3 Xrotation Yrotation Zrotation
										End Site
										{
											OFFSET 0 0 0
										}
									}
								}
							}
						}
						JOINT LeftShoulder_virtual
						{
							OFFSET 0.000000 0.000000 0.000000
							CHANNELS 3 Xrotation Yrotation Zrotation
							JOINT LeftShoulder
							{
								OFFSET 2.196100 4.412489 0.087492
								CHANNELS 3 Xrotation Yrotation Zrotation
								JOINT LeftShoulder_split
								{
									OFFSET 2.196100 4.412489 0.087492
									CHANNELS 3 Xrotation Yrotation Zrotation
									JOINT LeftArm
									{
										OFFSET 8.771219 -2.981674 -0.026999
										CHANNELS 3 Xrotation Yrotation Zrotation
										JOINT LeftForeArm
										{
											OFFSET 8.512804 0.000000 -0.000000
											CHANNELS 3 Xrotation Yrotation Zrotation
											JOINT LeftHand
											{
												OFFSET 18.484802 0.000000 -0.000000
												CHANNELS 3 Xrotation Yrotation Zrotation
												End Site
												{
													OFFSET 0 0 0
												}
											}
										}
									}
								}
							}
						}
						JOINT RightShoulder_virtual
						{
							OFFSET 0.000000 0.000000 0.000000
							CHANNELS 3 Xrotation Yrotation Zrotation
							JOINT RightShoulder
							{
								OFFSET -2.196100 4.412496 0.070690
								CHANNELS 3 Xrotation Yrotation Zrotation
								JOINT RightShoulder_split
								{
									OFFSET -2.196100 4.412496 0.070690
									CHANNELS 3 Xrotation Yrotation Zrotation
									JOINT RightArm
									{
										OFFSET -8.771282 -2.981682 -0.094208
										CHANNELS 3 Xrotation Yrotation Zrotation
										JOINT RightForeArm
										{
											OFFSET -8.494598 0.000000 0.000000
											CHANNELS 3 Xrotation Yrotation Zrotation
											JOINT RightHand
											{
												OFFSET -18.483803 0.000000 0.000001
												CHANNELS 3 Xrotation Yrotation Zrotation
												End Site
												{
													OFFSET 0 0 0
												}
											}
										}
									}
								}
							}
						}
					}
				}
			}
		}
	}
}
MOTION
Frames: 11
Frame Time: 0.03333333
0.292034 26.174198 -2.629963 0.000000 0.000000 0.000000 -14.597883 6.435609 1.950544 -33.924283 -2.964316 13.276655 74.092424 0.000578 -0.255658 -31.770782 0.500530 -18.667202 -2.296820 -0.012088 0.329150 0.000000 0.000000 0.000000 -13.488544 3.997594 1.545612 -27.321517 -1.736477 -25.980107 73.040820 4.818502 0.560798 -33.407695 -5.876462 15.729774 0.824053 1.000386 -0.289550 0.000000 0.000000 0.000000 -12.801956 4.703303 1.333519 25.236212 -3.441109 -0.391672 16.674397 -0.223466 0.507932 0.056169 0.991661 0.278557 0.000000 0.000000 0.000000 17.919305 -0.193137 0.609189 8.356090 -4.108276 1.183741 -12.534822 -2.147136 -4.104130 0.000000 0.000000 0.000000 18.497310 -0.358872 0.292220 0.725768 -19.215112 -4.345625 -1.325718 -1.848287 -4.598843 -29.601514 0.254739 -59.846165 -136.433042 -76.958876 -134.232984 0.000000 0.000000 0.000000 18.116950 0.013977 0.777819 7.392408 2.994127 21.501019 2.422321 3.629666 4.092377 -31.367343 9.886835 42.609896 -104.248931 63.052031 95.186076 0.000000 0.000000 0.000000 
0.224827 26.343956 -2.381649 0.000000 0.000000 0.000000 -15.376878 6.202059 1.663697 -31.761472 -3.106023 13.663893 72.944556 0.117245 -0.043257 -32.155820 0.607726 -18.370547 -2.385035 -0.014171 0.233786 0.000000 0.000000 0.000000 -14.401609 4.219672 1.313543 -25.162801 -1.990398 -25.245187 72.230719 4.682136 0.615690 -33.880771 -6.050055 15.559400 0.878479 0.963275 -0.229210 0.000000 0.000000 0.000000 -14.013300 4.282535 1.200994 24.818942 -3.163655 -0.524536 16.175838 -0.164594 0.601561 -0.156261 0.595751 0.297012 0.000000 0.000000 0.000000 17.170191 -0.140869 0.620619 8.048651 -3.966973 0.576978 -11.945793 -1.806104 -3.640994 0.000000 0.000000 0.000000 18.260956 -0.441927 0.389460 0.564213 -19.484346 -5.526999 -0.671169 -2.142326 -3.990697 -27.381066 -1.310544 -60.202291 -132.448624 -79.801499 -130.201055 0.000000 0.000000 0.000000 17.614284 0.082224 0.924229 7.365708 3.344651 21.777780 2.047543 2.859103 4.272566 -28.579733 8.161340 40.973554 -103.255597 62.934620 93.758533 0.000000 0.000000 0.000000 
0.128553 26.571638 -2.145590 0.000000 0.000000 0.000000 -16.282742 5.916505 1.366373 -29.318966 -3.351738 14.173678 71.428356 0.178292 0.169944 -32.343907 0.640497 -18.107564 -2.387587 -0.021490 0.131616 0.000000 0.000000 0.000000 -15.469024 4.397870 1.097069 -22.603847 -2.483304 -24.450240 71.001695 4.594103 0.736272 -34.327448 -6.242023 15.380838 0.826354 0.933044 -0.166817 0.000000 0.000000 0.000000 -15.358770 4.091252 0.975062 24.156183 -2.835006 -0.556349 15.832291 -0.146651 0.741368 -0.133856 0.667443 0.361707 0.000000 0.000000 0.000000 16.602440 -0.148989 0.656022 7.632832 -3.709933 -0.138753 -11.573277 -1.379138 -3.081344 0.000000 0.000000 0.000000 18.099450 -0.539893 0.586331 0.428010 -20.187208 -6.666505 -0.654539 -2.332493 -3.641514 -24.706743 -3.711454 -59.643288 -123.907459 -82.137874 -121.100688 0.000000 0.000000 0.000000 17.164607 0.034495 1.118132 7.163426 3.541533 22.155402 1.240109 2.750546 4.225260 -24.872882 7.717896 39.150375 -104.654501 64.078922 94.779564 0.000000 0.000000 0.000000 
0.014005 26.826677 -1.922773 0.000000 0.000000 0.000000 -17.190787 5.638377 1.126524 -26.797508 -3.643535 14.701624 69.668688 0.187601 0.333282 -32.350262 0.608390 -17.884128 -2.324826 -0.038427 0.068857 0.000000 0.000000 0.000000 -16.586530 4.452031 0.947523 -19.979750 -3.162796 -23.695536 69.459342 4.574713 0.916787 -34.616157 -6.433093 15.248560 0.639568 0.908803 -0.136091 0.000000 0.000000 0.000000 -16.629586 4.185810 0.737922 23.446159 -2.526076 -0.511320 15.570664 -0.177234 0.876707 0.282110 1.131192 0.590898 0.000000 0.000000 0.000000 16.188931 -0.204377 0.699922 6.911302 -3.340109 -0.846731 -11.567297 -0.976584 -2.422947 0.000000 0.000000 0.000000 17.847561 -0.640412 0.838127 0.374150 -20.998911 -7.495377 -1.016326 -2.448199 -3.706417 -22.491574 -5.959878 -58.360558 -116.388459 -83.535830 -112.558622 0.000000 0.000000 0.000000 16.718104 -0.113805 1.307788 6.874211 3.443634 22.568156 0.144898 2.927276 4.177125 -20.692601 8.008760 37.938634 -107.611119 66.265826 97.315087 0.000000 0.000000 0.000000 
-0.091608 27.083260 -1.725124 0.000000 0.000000 0.000000 -18.008023 5.409659 0.988123 -24.439508 -3.934549 15.135023 67.848265 0.181097 0.414016 -32.224710 0.578375 -17.706355 -2.232334 -0.056689 0.048823 0.000000 0.000000 0.000000 -17.599972 4.402322 0.866370 -17.521250 -3.934196 -23.024257 67.736782 4.616054 1.151852 -34.787936 -6.623375 15.120625 0.427245 0.891094 -0.155275 0.000000 0.000000 0.000000 -17.734709 4.467314 0.573122 22.809179 -2.293866 -0.416878 15.278332 -0.261801 0.961226 0.872192 1.559072 0.752614 0.000000 0.000000 0.000000 15.806004 -0.298140 0.749375 5.804379 -2.847177 -1.409648 -12.003551 -0.738967 -1.694491 0.000000 0.000000 0.000000 17.435431 -0.732018 1.057381 0.400132 -21.636736 -8.055338 -1.764168 -2.402106 -4.336590 -20.723692 -7.369222 -57.031219 -116.793462 -84.495013 -111.695846 0.000000 0.000000 0.000000 16.216001 -0.321315 1.423078 6.575537 3.059960 23.009427 -0.756626 3.326091 4.027140 -16.606709 8.345945 37.673134 -111.474773 69.145475 100.613679 0.000000 0.000000 0.000000 
-0.171413 27.315376 -1.536722 0.000000 0.000000 0.000000 -18.671760 5.242434 0.944538 -22.404653 -4.190150 15.418657 66.174199 0.179547 0.412154 -32.025258 0.622706 -17.594805 -2.154099 -0.071936 0.067709 0.000000 0.000000 0.000000 -18.426249 4.350174 0.853523 -15.353435 -4.700432 -22.448074 65.994271 4.689564 1.428986 -34.968438 -6.792944 14.902737 0.313468 0.884344 -0.225069 0.000000 0.000000 0.000000 -18.574389 4.833024 0.529719 22.320584 -2.160859 -0.327721 14.868166 -0.376689 0.969125 1.232521 2.117733 0.703363 0.000000 0.000000 0.000000 15.374382 -0.384535 0.753325 4.426489 -2.256018 -1.750272 -12.757118 -0.573184 -0.971473 0.000000 0.000000 0.000000 16.819790 -0.807584 1.174712 0.446048 -21.909319 -8.510849 -2.548338 -2.348113 -5.079607 -18.773994 -7.734931 -56.088045 -124.571340 -85.734003 -118.262540 0.000000 0.000000 0.000000 15.609877 -0.527864 1.451785 6.352728 2.419587 23.405178 -1.289035 3.508958 3.610230 -13.438908 8.411335 38.542792 -115.517296 72.450685 103.975608 0.000000 0.000000 0.000000 
-0.232858 27.519499 -1.348982 0.000000 0.000000 0.000000 -19.126084 5.116878 0.962225 -20.784819 -4.421207 15.543651 64.791373 0.199165 0.353199 -31.804325 0.794067 -17.581433 -2.084446 -0.079336 0.094484 0.000000 0.000000 0.000000 -19.025111 4.362361 0.882470 -13.524048 -5.385541 -21.968337 64.365647 4.765174 1.736678 -35.208713 -6.936808 14.558116 0.287711 0.887933 -0.325387 0.000000 0.000000 0.000000 -19.151376 5.226858 0.640381 22.008854 -2.112389 -0.273331 14.291980 -0.469700 0.901429 1.338201 2.283118 0.705598 0.000000 0.000000 0.000000 14.802666 -0.430777 0.719943 2.990210 -1.602136 -1.875581 -13.675420 -0.410337 -0.355249 0.000000 0.000000 0.000000 16.062127 -0.857367 1.191084 0.484667 -21.647229 -8.937957 -3.111610 -2.231867 -5.566760 -16.409960 -7.473220 -55.617667 -137.287485 -88.025627 -130.074642 0.000000 0.000000 0.000000 14.895504 -0.662178 1.413508 6.212558 1.650670 23.665653 -1.668597 3.481940 3.230258 -11.365026 8.252533 39.791927 -119.210352 76.002541 106.980003 0.000000 0.000000 0.000000 
-0.273333 27.689943 -1.182205 0.000000 0.000000 0.000000 -19.393170 5.058980 1.020579 -19.609352 -4.593957 15.547438 63.761223 0.249873 0.262034 -31.618715 1.076709 -17.657154 -2.034893 -0.076145 0.114248 0.000000 0.000000 0.000000 -19.345531 4.446902 0.936905 -12.058724 -5.924201 -21.579207 62.926990 4.821911 2.037448 -35.448713 -7.051336 14.140254 0.253988 0.896622 -0.432462 0.000000 0.000000 0.000000 -19.480830 5.571463 0.857016 21.819914 -2.104846 -0.265252 13.579143 -0.504024 0.793548 1.194242 2.066392 0.472130 0.000000 0.000000 0.000000 14.079348 -0.415162 0.658705 1.602102 -0.908843 -1.824795 -14.597409 -0.154254 0.062205 0.000000 0.000000 0.000000 15.219837 -0.862210 1.124744 0.465318 -20.914536 -9.423098 -3.543396 -2.209449 -5.549997 -13.447688 -7.215550 -55.603518 74.696055 -88.413534 82.458333 0.000000 0.000000 0.000000 14.108185 -0.684961 1.334057 6.150908 0.944072 23.869402 -1.790567 3.279363 2.814747 -10.267941 8.149135 40.804875 -122.941602 79.693336 110.219200 0.000000 0.000000 0.000000 
-0.306850 27.833731 -1.021547 0.000000 0.000000 0.000000 -19.466075 5.049804 1.076634 -18.799553 -4.682704 15.497764 63.034880 0.309870 0.181532 -31.489918 1.396850 -17.802912 -2.032449 -0.066618 0.150047 0.000000 0.000000 0.000000 -19.424824 4.549379 0.996266 -10.946340 -6.269116 -21.287138 61.657620 4.888950 2.287714 -35.620714 -7.115589 13.739223 0.188141 0.903882 -0.525376 0.000000 0.000000 0.000000 -19.576065 5.918983 1.119785 21.744894 -2.090893 -0.303809 12.792648 -0.462344 0.689925 0.978825 1.946918 0.441828 0.000000 0.000000 0.000000 13.270351 -0.327773 0.582771 0.336216 -0.217904 -1.672743 -15.367883 0.299465 0.223239 0.000000 0.000000 0.000000 14.331706 -0.822866 1.025172 0.365991 -19.834075 -9.984168 -3.774363 -2.349630 -4.967229 -10.266567 -7.427695 -55.707723 62.156190 -84.490922 70.121912 0.000000 0.000000 0.000000 13.274976 -0.590226 1.268302 6.138302 0.391104 24.079613 -1.677421 3.018511 2.441258 -9.798098 8.401246 41.179009 -129.829943 83.237139 117.053364 0.000000 0.000000 0.000000 
-0.339322 27.953037 -0.901415 0.000000 0.000000 0.000000 -19.389968 5.127942 1.130603 -18.310793 -4.662403 15.434231 62.515465 0.362336 0.119532 -31.407515 1.688503 -18.001232 -2.058330 -0.056749 0.219441 0.000000 0.000000 0.000000 -19.248943 4.659519 1.046137 -10.150806 -6.401308 -21.079740 60.476305 4.957257 2.462154 -35.716569 -7.130543 13.392083 0.092176 0.904983 -0.582587 0.000000 0.000000 0.000000 -19.472748 6.240819 1.358038 21.741360 -2.035923 -0.348509 12.013222 -0.356551 0.608079 1.009755 1.844067 0.431823 0.000000 0.000000 0.000000 12.428981 -0.199161 0.518589 -0.833601 0.408038 -1.465096 -15.936826 0.883327 0.183970 0.000000 0.000000 0.000000 13.490952 -0.749194 0.932796 0.239481 -18.564919 -10.551818 -3.933334 -2.505676 -4.285017 -7.531230 -8.188387 -55.750842 63.265051 -80.689471 71.203698 0.000000 0.000000 0.000000 12.465060 -0.410018 1.226865 6.148019 0.067939 24.352650 -1.483305 2.708756 2.293125 -9.422887 9.165889 40.730457 -153.415898 85.971728 141.131393 0.000000 0.000000 0.000000 
-0.371964 28.057051 -0.793451 0.000000 0.000000 0.000000 -19.183281 5.310523 1.186137 -18.032249 -4.513995 15.402669 62.110769 0.391537 0.066932 -31.348386 1.880599 -18.193799 -2.086267 -0.050115 0.324982 0.000000 0.000000 0.000000 -18.878861 4.738812 1.085892 -9.571177 -6.342811 -20.925084 59.357691 5.019950 2.549653 -35.741963 -7.113048 13.071334 0.009900 0.896040 -0.610321 0.000000 0.000000 0.000000 -19.176649 6.523835 1.528599 21.786854 -1.936423 -0.369105 11.308024 -0.232720 0.554115 1.181866 1.883477 0.450909 0.000000 0.000000 0.000000 11.621589 -0.055117 0.465194 -1.942268 0.953801 -1.213953 -16.286653 1.451315 0.051123 0.000000 0.000000 0.000000 12.743123 -0.656697 0.842903 0.129531 -17.284789 -11.126744 -4.037695 -2.636224 -3.804662 -5.679445 -9.305467 -55.789965 67.941080 -77.656396 75.713603 0.000000 0.000000 0.000000 11.744438 -0.201987 1.198075 6.186222 -0.065146 24.706239 -1.239263 2.313680 2.083121 -9.090265 10.240848 39.973624 158.385052 85.886671 -169.670000 0.000000 0.000000 0.000000 
